<?xml version="1.0" standalone="no"?>
<!DOCTYPE svg PUBLIC "-//W3C//DTD SVG 20010904//EN"
 "http://www.w3.org/TR/2001/REC-SVG-20010904/DTD/svg10.dtd">
<svg version="1.0" xmlns="http://www.w3.org/2000/svg"
 width="617.000000pt" height="617.000000pt" viewBox="0 0 617.000000 617.000000"
 preserveAspectRatio="xMidYMid meet">
<metadata>
Created by potrace 1.11, written by Peter Selinger 2001-2013
</metadata>
<g transform="translate(0.000000,617.000000) scale(0.100000,-0.100000)"
fill="#000000" stroke="none">
<path d="M2575 5422 c-4 -4 -52 -12 -92 -14 -13 -1 -23 -5 -23 -8 0 -4 -6 -7
-12 -7 -7 0 -31 -8 -53 -18 -22 -10 -42 -19 -45 -20 -27 -10 -39 -19 -34 -26
3 -5 2 -9 -3 -8 -4 1 -13 1 -20 0 -16 -1 -148 -135 -170 -171 -9 -17 -21 -30
-25 -30 -4 0 -8 -5 -8 -10 0 -6 -15 -36 -32 -67 -18 -32 -33 -64 -35 -72 -1
-8 -8 -18 -15 -22 -7 -5 -10 -9 -5 -9 4 0 1 -13 -8 -30 -9 -16 -13 -30 -10
-30 3 0 -4 -9 -16 -21 -11 -11 -18 -27 -15 -34 3 -8 2 -15 -2 -17 -12 -5 -65
-92 -65 -105 0 -7 -2 -11 -5 -9 -8 8 -41 -28 -35 -38 3 -6 3 -8 -1 -4 -10 8
-47 -23 -40 -34 3 -5 2 -8 -3 -7 -4 1 -44 -15 -88 -36 -76 -37 -108 -47 -147
-46 -10 0 -18 -4 -18 -8 0 -5 -12 -9 -27 -9 -16 -1 -64 -4 -108 -7 -44 -3
-119 -6 -168 -7 -48 -1 -87 -5 -87 -8 0 -3 -17 -6 -37 -6 -21 0 -54 -4 -73 -8
-19 -4 -43 -8 -52 -9 -10 -1 -18 -5 -18 -10 0 -4 -4 -6 -8 -3 -5 3 -20 -1 -35
-9 -15 -8 -27 -12 -27 -9 0 15 -136 -91 -165 -128 -49 -64 -66 -90 -54 -83 7
5 4 -4 -9 -19 -12 -16 -22 -36 -22 -46 0 -9 -3 -20 -7 -24 -19 -19 -21 -287
-2 -321 3 -5 5 -25 4 -42 -1 -18 1 -33 6 -33 4 0 6 -13 4 -30 -2 -16 -1 -30 4
-30 4 0 6 -23 5 -50 -1 -28 2 -52 6 -55 10 -6 0 -133 -16 -195 -3 -14 -6 -33
-6 -43 1 -9 -3 -15 -9 -12 -8 6 -13 -8 -10 -27 0 -5 -4 -8 -10 -8 -5 0 -7 -4
-4 -10 3 -5 2 -10 -2 -10 -5 0 -17 -15 -28 -32 -10 -18 -27 -41 -38 -50 -11
-10 -17 -18 -14 -18 4 0 -8 -14 -26 -31 -17 -17 -32 -36 -32 -42 0 -5 -8 -11
-17 -13 -10 -1 -40 -25 -67 -53 -27 -28 -54 -51 -60 -51 -6 0 -11 -7 -11 -15
0 -9 -7 -18 -15 -21 -18 -7 -76 -100 -68 -108 4 -3 1 -6 -5 -6 -6 0 -9 -9 -7
-20 2 -11 0 -20 -4 -20 -4 0 -6 -24 -4 -52 3 -56 9 -103 12 -103 2 0 4 -7 6
-15 2 -8 9 -28 16 -45 7 -16 13 -33 14 -37 2 -5 4 -11 5 -15 1 -5 2 -11 1 -15
0 -5 3 -8 8 -8 5 0 11 -10 15 -23 3 -12 13 -31 23 -43 10 -11 26 -33 35 -49
10 -17 22 -29 28 -27 7 1 9 -2 6 -7 -4 -5 0 -15 7 -23 8 -7 19 -24 26 -36 7
-12 17 -20 23 -16 7 4 8 3 4 -4 -4 -7 -2 -12 3 -12 6 0 11 -5 11 -12 0 -6 7
-18 15 -27 8 -9 26 -28 40 -43 14 -15 25 -29 25 -32 0 -5 18 -29 45 -60 6 -6
19 -28 30 -48 11 -21 23 -38 27 -38 5 0 8 -6 8 -14 0 -7 8 -31 17 -52 9 -22
18 -42 19 -46 1 -5 2 -9 4 -10 1 -2 4 -16 6 -32 3 -16 9 -37 13 -45 4 -9 7
-28 6 -43 -1 -16 1 -28 5 -28 3 0 5 -19 5 -43 -1 -23 1 -46 4 -52 3 -5 6 -59
8 -120 3 -119 9 -248 13 -252 1 -2 4 -16 5 -33 1 -16 3 -31 5 -32 2 -3 10 -57
12 -85 1 -7 5 -13 9 -13 4 0 6 -8 4 -17 -1 -10 2 -27 8 -38 6 -11 12 -25 13
-32 4 -21 45 -98 74 -137 59 -78 212 -188 240 -171 5 3 11 2 14 -3 6 -11 221
-3 221 8 0 1 11 4 25 6 14 3 27 9 28 14 2 6 7 8 11 6 4 -3 31 3 61 13 l55 18
-2 114 c-2 63 -4 264 -5 447 -2 182 -5 332 -9 332 -3 0 -5 28 -3 62 1 34 0 67
-4 72 -3 6 -7 33 -8 61 -2 27 -5 64 -8 80 -3 17 -8 48 -11 70 -11 71 -12 80
-15 80 -1 0 -3 11 -5 25 -2 14 -6 36 -10 50 -4 14 -8 34 -10 45 -2 11 -4 21
-5 23 -2 1 -4 7 -5 12 -1 6 -4 12 -5 15 -1 3 -4 10 -5 15 -1 6 -3 11 -5 13 -1
1 -3 10 -5 19 -2 9 -9 34 -16 55 -7 21 -12 44 -11 51 2 6 -2 12 -8 12 -6 0
-10 6 -9 12 1 7 -3 27 -10 43 -7 17 -12 31 -12 32 0 2 -6 21 -14 43 -8 22 -12
40 -9 40 2 0 -3 14 -12 31 -8 17 -17 38 -19 48 -1 9 -8 36 -15 61 -7 25 -14
52 -15 60 -2 8 -4 15 -5 15 -1 0 -4 14 -5 30 -2 17 -7 46 -11 65 -9 44 -9 235
0 275 4 17 8 36 8 43 1 6 5 12 9 12 4 0 10 12 13 26 7 27 68 94 86 94 6 0 8 6
4 13 -4 6 -4 9 0 5 4 -3 25 0 46 7 57 20 153 6 182 -28 27 -30 63 -99 60 -114
-2 -7 2 -13 8 -13 6 0 8 -5 5 -10 -4 -6 -1 -17 5 -25 7 -8 9 -15 5 -15 -4 0
-2 -7 5 -15 7 -8 10 -15 7 -15 -3 0 1 -16 9 -35 8 -19 11 -35 8 -35 -4 0 0 -8
9 -17 8 -10 16 -22 17 -28 1 -5 6 -17 10 -25 11 -19 32 -1 38 32 2 13 5 28 7
33 2 6 6 19 9 30 4 11 17 25 29 31 134 70 183 97 185 105 2 5 8 7 12 4 8 -5
75 16 110 34 21 11 91 5 99 -8 8 -13 8 -62 -1 -76 -6 -13 -4 -97 3 -110 3 -5
5 -29 4 -53 -1 -23 2 -45 6 -48 4 -2 6 -13 4 -24 -10 -54 68 -130 150 -146 6
-1 12 -3 15 -4 3 -2 25 -3 50 -4 25 -1 50 -4 55 -7 6 -3 43 -5 83 -4 39 0 72
-2 72 -5 0 -3 20 -5 45 -6 25 -1 45 2 45 6 0 4 28 6 63 4 34 -1 67 1 72 5 6 3
24 7 40 8 50 3 142 20 157 29 5 3 20 8 35 10 14 3 36 10 47 16 12 7 28 14 36
15 26 6 34 9 71 25 49 21 95 32 179 41 14 2 30 5 35 8 15 8 109 4 125 -6 9 -6
11 -4 5 5 -6 10 -4 11 6 4 8 -4 19 -9 24 -11 6 -1 21 -5 35 -8 14 -4 31 -7 38
-7 6 -1 12 -5 12 -10 0 -5 9 -6 20 -3 11 4 20 2 20 -4 0 -6 3 -10 8 -9 4 1 27
-4 52 -11 67 -20 103 -23 234 -24 89 0 120 3 126 14 5 7 12 10 16 7 10 -11 76
20 92 43 7 11 23 30 35 42 48 50 71 80 57 72 -11 -6 -10 -3 3 12 9 11 17 24
17 30 0 5 9 18 20 28 11 10 18 20 15 23 -2 3 0 13 6 24 6 10 13 38 15 61 6 51
9 54 29 33 9 -9 14 -16 10 -16 -3 0 1 -13 10 -30 15 -28 51 -44 43 -18 -3 7 3
20 11 30 9 10 16 22 16 26 0 4 16 22 35 41 19 18 34 38 32 43 -1 5 2 7 7 4 5
-4 17 4 25 16 9 12 16 19 16 15 0 -4 19 3 42 15 24 12 46 21 51 20 4 -1 7 2 7
6 0 9 8 10 100 15 37 2 71 -1 79 -7 12 -9 13 -8 6 4 -6 11 -3 10 12 -2 11 -10
24 -18 30 -18 16 0 58 -44 61 -65 6 -33 5 -138 -1 -170 -14 -73 -19 -102 -22
-126 -1 -15 -5 -32 -9 -38 -4 -6 -9 -23 -11 -38 -2 -16 -7 -38 -10 -50 -3 -13
-7 -33 -11 -45 -3 -13 -7 -34 -10 -48 -3 -13 -10 -30 -16 -37 -6 -7 -8 -13 -4
-13 3 0 1 -11 -4 -25 -10 -25 -20 -67 -23 -95 -1 -8 -5 -17 -9 -20 -4 -3 -9
-15 -11 -25 -1 -11 -5 -24 -8 -30 -8 -14 -23 -68 -21 -77 1 -5 -3 -8 -10 -8
-6 0 -8 -3 -5 -6 3 -4 1 -16 -5 -28 -7 -11 -13 -25 -14 -31 -5 -23 -56 -152
-68 -170 -7 -11 -12 -28 -10 -37 1 -9 -4 -19 -12 -22 -8 -3 -14 -14 -14 -25 0
-11 -4 -21 -10 -23 -5 -1 -11 -12 -13 -23 -3 -19 -57 -135 -67 -145 -10 -10
-40 -81 -40 -95 0 -8 -4 -15 -8 -15 -6 0 -28 -57 -38 -100 0 -3 -4 -13 -8 -22
-4 -9 -9 -25 -11 -35 -2 -10 -4 -18 -5 -18 -2 0 -9 -33 -14 -70 -3 -16 -5 -30
-7 -30 -1 0 -3 -29 -4 -65 -2 -36 -6 -82 -8 -103 -3 -20 -2 -39 2 -41 3 -2 6
-43 6 -90 -1 -89 6 -102 37 -68 38 41 130 97 142 85 3 -4 6 -2 6 4 0 5 6 10
13 11 14 1 62 9 95 16 12 3 22 1 22 -3 0 -9 51 -8 67 2 6 4 14 3 18 -2 3 -5
14 -8 25 -6 11 2 22 -1 25 -6 4 -5 10 -7 15 -4 5 3 11 1 15 -4 3 -6 12 -8 20
-4 8 3 15 0 15 -7 0 -6 4 -9 9 -5 5 3 12 1 16 -5 3 -5 13 -10 21 -10 8 0 72
-30 142 -67 70 -37 129 -68 132 -69 5 -1 44 -16 80 -31 19 -8 47 -13 87 -16
18 -2 35 -6 39 -10 4 -3 15 -2 25 4 11 5 19 7 19 3 0 -3 6 -1 13 5 8 6 17 8
20 5 8 -9 64 33 112 83 39 40 98 143 98 170 0 7 3 13 7 13 3 0 7 10 8 23 7 69
8 103 3 112 -3 6 -6 21 -7 35 -1 14 -2 25 -4 25 -2 0 -8 34 -12 63 -1 6 -5 12
-9 12 -5 0 -6 7 -3 15 4 8 1 15 -6 15 -6 0 -9 3 -6 8 2 4 -3 23 -12 42 -20 45
-18 40 -27 78 -4 18 -12 35 -16 38 -5 3 -7 10 -4 15 4 5 2 9 -4 9 -5 0 -8 9
-6 20 2 11 -1 20 -6 20 -6 0 -8 4 -4 9 3 5 1 12 -3 15 -5 3 -8 17 -7 31 2 14
0 25 -4 25 -11 0 -5 201 7 239 6 18 11 36 10 40 -1 6 7 27 37 96 10 22 17 43
17 48 -1 4 3 7 8 7 5 0 9 3 8 8 -1 4 4 18 13 32 8 14 39 66 69 115 29 50 58
93 64 97 6 4 7 8 3 8 -5 0 1 13 13 30 12 17 18 30 14 30 -4 0 0 8 8 18 17 19
44 83 40 95 -1 4 2 7 6 7 5 0 9 6 10 13 2 21 7 42 15 54 13 21 28 182 19 198
-4 5 -7 25 -9 43 -1 18 -7 41 -13 52 -6 11 -7 20 -3 20 4 0 2 4 -4 8 -7 4 -14
18 -16 30 -2 13 -12 33 -22 45 -11 12 -19 24 -18 27 0 5 -25 46 -42 68 -12 15
-82 94 -92 105 -73 72 -127 116 -135 111 -6 -4 -8 -3 -5 2 3 6 -12 21 -34 34
-21 14 -39 28 -39 33 0 4 -4 6 -9 3 -5 -4 -11 -3 -13 1 -1 5 -36 24 -76 43
-40 19 -78 40 -84 47 -6 7 -15 10 -20 7 -6 -4 -13 -3 -17 2 -7 10 -65 38 -67
32 -1 -1 -10 4 -20 13 -21 17 -55 33 -67 31 -4 -1 -6 4 -5 10 2 7 -3 12 -9 10
-7 -1 -13 3 -13 10 0 6 -3 9 -6 5 -3 -3 -20 7 -37 21 -98 85 -136 149 -140
237 -1 17 -5 35 -8 40 -4 6 -4 19 -2 30 2 11 6 34 8 50 5 50 16 107 25 129 4
12 8 23 8 26 1 14 15 66 21 75 9 17 14 57 15 125 0 89 -31 152 -116 238 -42
43 -65 62 -73 62 -4 0 -13 6 -20 13 -35 30 -45 37 -45 30 0 -4 -4 -3 -8 3 -8
11 -101 51 -142 60 -61 14 -81 16 -187 18 -62 1 -113 -1 -113 -5 0 -3 -15 -6
-32 -6 -18 0 -46 -3 -63 -7 -53 -11 -90 -20 -100 -22 -10 -3 -48 -12 -75 -19
-8 -2 -15 -4 -15 -5 0 -1 -7 -3 -15 -5 -8 -2 -49 -12 -90 -23 -110 -30 -198
-43 -270 -42 -50 0 -132 7 -140 11 -3 1 -9 3 -15 4 -37 7 -73 19 -93 32 -13 8
-26 12 -29 9 -3 -3 -18 3 -33 14 -16 11 -31 20 -34 20 -9 0 -90 53 -98 65 -5
7 -8 7 -8 0 0 -6 -3 -6 -8 0 -4 6 -23 22 -42 35 -19 14 -44 32 -54 42 -11 10
-26 18 -33 18 -7 0 -13 4 -13 9 0 9 -96 71 -110 71 -5 0 -10 4 -12 9 -4 10
-110 66 -120 63 -5 -1 -8 3 -8 10 0 6 -3 9 -6 5 -3 -3 -26 3 -51 14 -26 11
-55 21 -67 24 -12 2 -21 4 -21 5 0 1 -7 3 -15 5 -8 2 -26 7 -40 10 -47 13
-197 25 -205 17z m875 -1226 c25 -2 45 -5 45 -6 0 -1 14 -4 30 -6 66 -8 90
-12 90 -14 0 -2 35 -10 58 -12 9 -1 17 -7 17 -12 0 -5 3 -7 6 -3 4 3 19 0 35
-8 15 -8 34 -15 42 -15 27 0 230 -117 272 -157 7 -7 15 -10 18 -7 3 3 3 -2 1
-13 -5 -19 -38 -24 -64 -8 -9 6 -11 4 -5 -6 7 -11 6 -12 -6 -3 -8 7 -25 11
-39 10 -14 -1 -29 0 -35 3 -5 3 -23 6 -40 6 -16 0 -34 3 -40 7 -5 3 -29 5 -53
3 -23 -1 -45 1 -47 5 -2 3 -36 6 -74 5 -39 -1 -71 2 -71 5 0 13 -669 13 -690
0 -3 -1 -36 -4 -75 -6 -87 -4 -180 -11 -180 -14 0 -1 -16 -3 -35 -5 -54 -6
-102 -13 -130 -20 -14 -3 -31 -7 -38 -9 -8 -1 -18 -9 -23 -17 -5 -8 -9 -10 -9
-5 0 5 -12 -3 -26 -17 -15 -15 -30 -24 -35 -21 -5 3 -12 -2 -15 -10 -3 -9 -13
-16 -21 -16 -8 0 -20 -6 -27 -12 -19 -20 -69 -108 -61 -108 4 0 3 -6 -2 -12
-11 -14 -12 -76 -2 -93 8 -14 4 -129 -5 -144 -4 -6 -12 -9 -17 -6 -5 4 -9 1
-9 -5 0 -6 -4 -9 -9 -6 -11 7 -60 -13 -165 -66 -85 -43 -116 -45 -94 -6 7 13
16 25 19 28 4 3 10 16 14 30 4 14 13 28 19 32 6 4 11 11 11 15 0 4 15 29 32
54 18 26 29 49 26 53 -4 3 -1 6 4 6 6 0 24 20 40 45 15 25 32 45 36 45 5 0 5
5 1 12 -4 6 -3 8 3 5 8 -5 43 25 43 39 0 9 94 100 123 119 15 9 24 22 20 28
-3 5 -1 7 5 3 5 -3 12 -2 14 2 4 12 136 102 148 102 5 0 10 5 10 11 0 5 5 7
10 4 6 -3 10 -2 10 3 0 7 39 31 60 37 18 5 86 41 88 48 2 4 8 4 13 1 6 -3 21
2 34 10 14 9 25 14 25 11 0 -2 12 0 28 6 15 6 36 13 47 15 42 10 50 13 50 14
0 1 9 3 20 5 26 5 59 13 63 15 1 2 14 3 30 4 15 1 32 4 37 7 6 4 20 5 33 4 12
-1 22 1 22 5 0 3 19 6 43 5 23 -1 50 1 59 4 18 6 211 5 288 -3z m435 -277 c6
-3 26 -5 45 -4 19 1 40 -1 45 -5 6 -4 27 -7 48 -6 21 2 40 -1 43 -6 3 -4 22
-5 42 -1 79 13 172 -3 157 -28 -4 -5 6 -9 20 -9 75 0 132 -70 149 -186 2 -11
6 -26 10 -32 11 -18 -16 -26 -30 -8 -14 20 -17 20 -66 -5 -21 -10 -40 -19 -43
-19 -12 0 -4 24 13 39 32 28 24 50 -17 49 -20 0 -40 -3 -46 -7 -5 -3 -17 -7
-25 -9 -30 -6 -35 -8 -50 -17 -8 -5 -23 -10 -32 -11 -10 -1 -19 -2 -20 -4 -3
-2 -17 -5 -54 -14 -41 -9 -47 9 -13 42 18 18 29 32 23 32 -5 0 -3 4 4 9 26 16
-24 19 -59 3 -19 -8 -38 -14 -43 -13 -5 1 -12 -2 -15 -6 -11 -15 -130 -55
-163 -54 -10 0 -18 -4 -18 -8 0 -6 -57 -7 -91 -2 -5 1 -5 11 0 53 1 4 13 20
29 35 15 15 26 31 24 36 -1 5 1 6 6 3 11 -6 74 50 90 81 14 25 7 49 -16 58
-15 6 -15 8 3 15 22 8 34 8 50 -1z m-875 -184 c0 -8 -4 -16 -10 -20 -5 -3 -6
-13 -3 -22 4 -10 2 -14 -4 -10 -10 6 -43 -26 -43 -43 0 -6 -7 -13 -15 -16 -8
-4 -15 -10 -15 -14 0 -5 -10 -26 -22 -47 -12 -20 -24 -44 -26 -53 -13 -54 -13
-70 -3 -71 6 -1 17 -2 24 -3 6 -1 36 6 65 15 50 17 52 17 52 -1 0 -10 -7 -26
-16 -34 -8 -9 -12 -16 -8 -16 4 0 -5 -11 -20 -25 -14 -13 -26 -31 -26 -40 0
-8 -3 -14 -8 -13 -4 2 -24 -13 -44 -32 -19 -19 -50 -46 -68 -60 -51 -39 -68
-60 -65 -78 2 -9 4 -20 4 -23 1 -10 60 -3 74 10 8 6 17 8 20 4 4 -3 16 2 27
12 11 10 20 15 20 10 0 -4 7 -2 15 5 8 7 15 9 15 6 0 -4 12 1 28 11 30 21 92
30 92 15 0 -6 3 -18 7 -28 4 -12 3 -15 -5 -10 -7 4 -12 2 -12 -4 0 -6 -13 -24
-30 -40 -34 -33 -36 -46 -16 -76 17 -24 38 -22 -232 -26 -101 -2 -186 0 -188
4 -2 4 -13 5 -24 3 -10 -2 -35 7 -54 20 -19 13 -38 20 -42 17 -4 -4 -4 -2 -1
4 3 6 0 22 -8 37 -7 15 -12 38 -9 52 2 14 1 25 -4 25 -4 0 -7 17 -6 38 1 20
-1 41 -4 47 -6 10 -9 79 -14 297 -3 124 -2 128 17 121 21 -7 30 -7 86 -1 34 4
35 3 34 -26 -1 -20 6 -38 21 -53 l23 -23 52 24 c28 14 56 29 62 35 6 6 14 11
18 11 3 0 33 12 65 27 33 14 62 26 67 25 4 -1 7 3 7 10 0 6 2 9 5 6 3 -3 31 5
62 17 57 24 83 23 83 0z"/>
<path d="M3973 2628 c-6 -7 -9 -29 -8 -48 4 -61 4 -61 -95 -45 -75 13 -163 16
-360 16 -244 -1 -300 -3 -300 -11 0 -3 -19 -6 -42 -7 -24 0 -56 -4 -73 -8 -52
-12 -79 -16 -102 -17 -13 0 -23 -3 -23 -7 0 -4 -8 -8 -17 -8 -32 -4 -78 -11
-78 -13 0 -3 -41 -12 -72 -15 -26 -2 -31 0 -28 16 2 10 -3 25 -11 34 -8 8 -15
17 -14 20 1 17 -2 21 -18 32 -11 6 -25 8 -32 3 -10 -6 -8 -13 10 -31 12 -13
27 -35 32 -49 14 -32 16 -100 4 -100 -5 0 -7 -3 -3 -6 3 -3 -3 -22 -13 -42
-28 -52 -3 -71 28 -21 9 14 10 19 2 14 -7 -4 -4 4 5 18 9 14 16 28 16 31 -4
23 3 33 32 46 17 7 39 15 47 16 27 4 45 9 55 15 6 4 18 5 28 4 9 -2 17 1 17 6
0 6 4 8 8 5 4 -3 26 0 48 5 45 11 86 19 129 23 17 2 32 4 35 6 3 1 25 4 50 6
25 1 83 5 130 8 135 10 233 8 445 -8 28 -2 50 -5 50 -6 0 -2 14 -4 30 -5 17
-2 41 -6 55 -10 14 -4 30 -7 37 -7 7 -1 10 -5 7 -9 -7 -11 48 -88 64 -89 6 0
12 -5 12 -11 0 -6 6 -9 14 -6 8 3 17 1 19 -6 3 -7 8 -5 12 7 8 18 -11 40 -27
30 -4 -3 -8 -1 -8 5 0 5 -14 23 -31 40 -17 17 -28 31 -24 31 3 0 0 10 -7 23
-6 12 -13 46 -14 75 -2 59 -6 69 -21 50z"/>
<path d="M3380 2397 c0 -4 -5 -5 -11 -1 -6 3 -14 3 -18 -2 -3 -5 -15 -14 -26
-20 -11 -6 -20 -17 -20 -25 0 -19 49 -14 90 8 18 9 37 9 125 0 14 -1 28 -6 31
-11 9 -11 51 3 44 15 -4 5 0 9 7 9 8 0 7 6 -5 17 -14 14 -36 18 -117 18 -55 1
-100 -3 -100 -8z"/>
</g>
</svg>
